<svg width="484" height="98" viewBox="0 0 484 98" fill="none" xmlns="http://www.w3.org/2000/svg">
<path d="M80.0995 76.061L31.7626 76.2011L21.4536 97.9349H0L48.0617 0H66.4476L112.418 97.9299H90.2683L80.0995 76.061ZM56.1387 23.8207L38.8637 60.3173H73.1334L56.2788 23.8207H56.1387Z" fill="#F8F8F1"/>
<path d="M150.961 36.2212V97.7946H128.811V0.139892H141.908L208.636 58.7858V0.139892H230.505V97.7946H217.408L150.961 36.2212Z" fill="#F8F8F1"/>
<path d="M275.119 36.2212V97.7946H252.97V0.139892H266.066L332.794 58.7858V0.139892H354.663V97.7946H341.567L275.119 36.2212Z" fill="#F8F8F1"/>
<path d="M451.677 76.061L403.34 76.2011L393.031 97.9349H371.577L419.639 0H438.03L484 97.9299H461.851L451.682 76.061H451.677ZM427.721 23.8207L410.446 60.3173H444.716L427.861 23.8207H427.721Z" fill="#F8F8F1"/>
</svg>
